<svg id="Layer_1" data-name="Layer 1" xmlns="http://www.w3.org/2000/svg" viewBox="0 0 26 13"><defs><style>.cls-1{fill:#fff;}</style></defs><title>apple-tv-icon</title><path class="cls-1" d="M15,1V3h2.53v.72H15v6a2.66,2.66,0,0,0,.3,1.39,1.09,1.09,0,0,0,1,.49,3.42,3.42,0,0,0,.59,0,3.38,3.38,0,0,0,.42-.09l.09.68a2.94,2.94,0,0,1-1.22.21,2.22,2.22,0,0,1-1-.21,1.59,1.59,0,0,1-.65-.58,2.36,2.36,0,0,1-.33-.89,5.8,5.8,0,0,1-.1-1.13V3.74h-1.5V3h1.5V1.35L15,1Zm4,2,2.09,5.67c.18.44.34.86.48,1.25L22,11.1h0L22.45,10c.15-.4.31-.82.49-1.26L25.05,3H26l-3.63,9.13h-.78L18.09,3Z"/><path class="cls-1" d="M5.55,1.07A2.67,2.67,0,0,1,7.49,0a2.62,2.62,0,0,1-.64,2A2.08,2.08,0,0,1,5,2.84a2.32,2.32,0,0,1,.54-1.77ZM5.12,3.54A11.05,11.05,0,0,1,7.32,3,2.75,2.75,0,0,1,9.73,4.2,2.68,2.68,0,0,0,8.4,6.54a2.74,2.74,0,0,0,1.66,2.51S8.9,12.32,7.33,12.32c-.72,0-1.28-.48-2-.48s-1.55.5-2,.5C1.81,12.34,0,9.24,0,6.74S1.53,3,3,3C3.91,3,4.63,3.54,5.12,3.54Z"/></svg>