<svg xmlns="http://www.w3.org/2000/svg" viewBox="0 0 35.96 11.16"><defs><style>.cls-1{fill:#fff;}</style></defs><title>logo_roku</title><g id="Layer_2" data-name="Layer 2"><g id="Layer_1-2" data-name="Layer 1"><path class="cls-1" d="M5.66,3.67A1.83,1.83,0,0,0,3.84,1.83H2.93V5.5h.91A1.83,1.83,0,0,0,5.66,3.67M9.78,11H6.46L3.82,7.33H2.93V11H0V0H4.2C6.62,0,8.59,1.65,8.59,3.67a3.54,3.54,0,0,1-1.91,3L9.78,11"/><path class="cls-1" d="M13.09,4.33c-.77,0-1.43,1-1.43,2.35S12.32,9,13.09,9s1.45-1,1.45-2.36-.66-2.35-1.45-2.35M17.6,6.68a4.51,4.51,0,1,1-4.51-4.47A4.49,4.49,0,0,1,17.6,6.68m6.88-4.29L21.1,5.76V2.38H18.17V11H21.1V7.49L24.63,11h3.68L23.83,6.5l3.71-3.7V7.9c0,1.7,1,3.26,3.59,3.26A4.08,4.08,0,0,0,34,9.85L35.33,11H36V2.39H33V8a1.64,1.64,0,0,1-1.5.94c-.72,0-1.05-.43-1.05-1.79V2.39Z"/></g></g></svg>